# xmcd
# 
# Track frame offsets:
#     187
#     47692
#     100292
#     146100
#     182100
# 
# Disc length: 2728
# 
# Revision: 2
# Processed by: cddbd v1.5.2PL0 Copyright (c) Steve Scherf et al.
# Submitted via: BonkEnc v1.0.6
# 
DISCID=440aa605
DTITLE=George Russell - New York, N.Y.
DYEAR=1959
DGENRE=Jazz
TTITLE0=Manhatten
TTITLE1=Big City Blues
TTITLE2=Manhatten - Rico
TTITLE3=East Side Medley
TTITLE4=A Helluva town
EXTD=
EXTT0=
EXTT1=
EXTT2=
EXTT3=
EXTT4=
PLAYORDER=
